<mxfile host="app.diagrams.net" modified="2024-05-10T08:47:38.465Z" agent="Mozilla/5.0 (Windows NT 10.0; Win64; x64) AppleWebKit/537.36 (KHTML, like Gecko) Chrome/124.0.0.0 Safari/537.36 Edg/124.0.0.0" etag="YvUEtLjmLbDj8GOIlht3" version="24.3.1" type="github">
  <diagram name="第 1 页" id="ewSvjjyqyNSf9J9h_-O3">
    <mxGraphModel dx="1763" dy="1111" grid="1" gridSize="10" guides="1" tooltips="1" connect="1" arrows="1" fold="1" page="1" pageScale="1" pageWidth="827" pageHeight="1169" math="0" shadow="0">
      <root>
        <mxCell id="0" />
        <mxCell id="1" parent="0" />
        <mxCell id="HXVIaXM9yR29M6rJM_1R-1" value="DetailTestCase&lt;div&gt;(overide)&lt;/div&gt;" style="rounded=0;whiteSpace=wrap;html=1;" vertex="1" parent="1">
          <mxGeometry x="130" y="500" width="120" height="60" as="geometry" />
        </mxCell>
        <mxCell id="HXVIaXM9yR29M6rJM_1R-3" value="Base: TestCase" style="rounded=0;whiteSpace=wrap;html=1;" vertex="1" parent="1">
          <mxGeometry x="130" y="240" width="120" height="60" as="geometry" />
        </mxCell>
        <mxCell id="HXVIaXM9yR29M6rJM_1R-4" style="edgeStyle=orthogonalEdgeStyle;rounded=0;orthogonalLoop=1;jettySize=auto;html=1;entryX=0.5;entryY=1.117;entryDx=0;entryDy=0;entryPerimeter=0;" edge="1" parent="1" source="HXVIaXM9yR29M6rJM_1R-1" target="HXVIaXM9yR29M6rJM_1R-3">
          <mxGeometry relative="1" as="geometry" />
        </mxCell>
        <mxCell id="HXVIaXM9yR29M6rJM_1R-7" style="edgeStyle=orthogonalEdgeStyle;rounded=0;orthogonalLoop=1;jettySize=auto;html=1;entryX=1;entryY=0.5;entryDx=0;entryDy=0;" edge="1" parent="1" source="HXVIaXM9yR29M6rJM_1R-5" target="HXVIaXM9yR29M6rJM_1R-3">
          <mxGeometry relative="1" as="geometry" />
        </mxCell>
        <mxCell id="HXVIaXM9yR29M6rJM_1R-13" style="edgeStyle=orthogonalEdgeStyle;rounded=0;orthogonalLoop=1;jettySize=auto;html=1;" edge="1" parent="1" source="HXVIaXM9yR29M6rJM_1R-5">
          <mxGeometry relative="1" as="geometry">
            <mxPoint x="390" y="270" as="targetPoint" />
          </mxGeometry>
        </mxCell>
        <mxCell id="HXVIaXM9yR29M6rJM_1R-5" value="" style="shape=curlyBracket;whiteSpace=wrap;html=1;rounded=1;labelPosition=left;verticalLabelPosition=middle;align=right;verticalAlign=middle;" vertex="1" parent="1">
          <mxGeometry x="320" y="190" width="20" height="160" as="geometry" />
        </mxCell>
        <mxCell id="HXVIaXM9yR29M6rJM_1R-16" style="edgeStyle=orthogonalEdgeStyle;rounded=0;orthogonalLoop=1;jettySize=auto;html=1;" edge="1" parent="1" source="HXVIaXM9yR29M6rJM_1R-10">
          <mxGeometry relative="1" as="geometry">
            <mxPoint x="350" y="210" as="targetPoint" />
          </mxGeometry>
        </mxCell>
        <mxCell id="HXVIaXM9yR29M6rJM_1R-10" value="prepare" style="rounded=0;whiteSpace=wrap;html=1;" vertex="1" parent="1">
          <mxGeometry x="410" y="190" width="100" height="40" as="geometry" />
        </mxCell>
        <mxCell id="HXVIaXM9yR29M6rJM_1R-14" value="run" style="rounded=0;whiteSpace=wrap;html=1;" vertex="1" parent="1">
          <mxGeometry x="410" y="250" width="100" height="40" as="geometry" />
        </mxCell>
        <mxCell id="HXVIaXM9yR29M6rJM_1R-18" style="edgeStyle=orthogonalEdgeStyle;rounded=0;orthogonalLoop=1;jettySize=auto;html=1;" edge="1" parent="1" source="HXVIaXM9yR29M6rJM_1R-17">
          <mxGeometry relative="1" as="geometry">
            <mxPoint x="350" y="330" as="targetPoint" />
          </mxGeometry>
        </mxCell>
        <mxCell id="HXVIaXM9yR29M6rJM_1R-17" value="clear" style="rounded=0;whiteSpace=wrap;html=1;" vertex="1" parent="1">
          <mxGeometry x="410" y="310" width="100" height="40" as="geometry" />
        </mxCell>
      </root>
    </mxGraphModel>
  </diagram>
</mxfile>
